<?xml version="1.0" standalone="no"?><!DOCTYPE svg PUBLIC "-//W3C//DTD SVG 1.1//EN" "http://www.w3.org/Graphics/SVG/1.1/DTD/svg11.dtd"><svg t="1615691818227" class="icon" viewBox="0 0 1024 1024" version="1.1" xmlns="http://www.w3.org/2000/svg" p-id="1266" width="128" height="128" xmlns:xlink="http://www.w3.org/1999/xlink"><defs><style type="text/css"></style></defs><path d="M512 1024c-68.54 0-135.892-16.2-200.184-48.134-60.062-29.838-114.718-71.92-162.446-125.078C54.444 745.064 0 609.916 0 480c0-128.416 53.4-249.086 150.344-339.782C247 49.8 375.44 0 512 0s265 49.8 361.656 140.218C970.6 230.914 1024 351.584 1024 480c0 129.916-54.444 265.064-149.37 370.788-47.728 53.158-102.384 95.24-162.446 125.078C647.892 1007.8 580.54 1024 512 1024z" fill="#FFCC80" p-id="1267"></path><path d="M941.36 218.27q2.6 26.516 2.64 53.73c0 300.442-243.558 544-544 544a541.888 541.888 0 0 1-357.93-134.362 602.288 602.288 0 0 0 107.3 169.15c47.728 53.158 102.384 95.24 162.446 125.078C376.108 1007.8 443.46 1024 512 1024s135.892-16.2 200.184-48.134c60.062-29.838 114.718-71.92 162.446-125.078C969.556 745.064 1024 609.916 1024 480a455.414 455.414 0 0 0-82.64-261.73z" fill="#FFB74D" p-id="1268"></path><path d="M384 320a16 16 0 0 1-16-16 48 48 0 0 0-96 0 16 16 0 0 1-32 0 80 80 0 0 1 160 0 16 16 0 0 1-16 16zM768 320a16 16 0 0 1-16-16 48 48 0 0 0-96 0 16 16 0 0 1-32 0 80 80 0 0 1 160 0 16 16 0 0 1-16 16z" fill="#424242" p-id="1269"></path><path d="M880 304m-48 0a48 48 0 1 0 96 0 48 48 0 1 0-96 0Z" fill="#FFE4C0" p-id="1270"></path><path d="M144 304m-48 0a48 48 0 1 0 96 0 48 48 0 1 0-96 0Z" fill="#FFE4C0" p-id="1271"></path><path d="M512 640c-80.468 0-156.28-24.498-213.47-68.978C240.15 525.616 208 464.878 208 400a16 16 0 0 1 32 0c0 114.692 122.018 208 272 208s272-93.308 272-208a16 16 0 0 1 32 0c0 64.878-32.15 125.616-90.53 171.022C668.28 615.502 592.468 640 512 640z" fill="#EF5350" p-id="1272"></path><path d="M864 440c-60.17 0-88.704-44.222-95.384-67.6a16 16 0 1 1 30.768-8.8c0.516 1.714 13.942 44.4 64.616 44.4a16 16 0 0 1 0 32zM160 440a16 16 0 0 1 0-32c50.674 0 64.1-42.682 64.646-44.5a16 16 0 1 1 30.738 8.896C248.704 395.778 220.17 440 160 440z" fill="#EF5350" p-id="1273"></path><path d="M576 704h-128a16 16 0 0 1 0-32h128a16 16 0 0 1 0 32z" fill="#FFB74D" p-id="1274"></path></svg>